<?xml version="1.0" encoding="UTF-8" standalone="no"?>
<!-- Created with Inkscape (http://www.inkscape.org/) -->

<svg
   width="210mm"
   height="297mm"
   viewBox="0 0 210 297"
   version="1.1"
   id="svg1"
   inkscape:version="1.3.2 (1:1.3.2+202311252150+091e20ef0f)"
   sodipodi:docname="icon.svg"
   xmlns:inkscape="http://www.inkscape.org/namespaces/inkscape"
   xmlns:sodipodi="http://sodipodi.sourceforge.net/DTD/sodipodi-0.dtd"
   xmlns="http://www.w3.org/2000/svg"
   xmlns:svg="http://www.w3.org/2000/svg">
  <sodipodi:namedview
     id="namedview1"
     pagecolor="#505050"
     bordercolor="#eeeeee"
     borderopacity="1"
     inkscape:showpageshadow="0"
     inkscape:pageopacity="0"
     inkscape:pagecheckerboard="0"
     inkscape:deskcolor="#505050"
     inkscape:document-units="mm"
     inkscape:zoom="2.0031716"
     inkscape:cx="398.86747"
     inkscape:cy="400.6147"
     inkscape:window-width="1920"
     inkscape:window-height="995"
     inkscape:window-x="0"
     inkscape:window-y="0"
     inkscape:window-maximized="1"
     inkscape:current-layer="layer1" />
  <defs
     id="defs1" />
  <g
     inkscape:label="Layer 1"
     inkscape:groupmode="layer"
     id="layer1">
    <circle
       style="fill:#000000;stroke:#000000;stroke-width:1.32292;stroke-opacity:1"
       id="path1"
       cx="111.58964"
       cy="101.80773"
       r="38.995247" />
    <path
       id="path2"
       style="fill:#ffeeaa;stroke:#b0b156;stroke-width:1.32292;stroke-opacity:1"
       d="m 111.51184,67.236958 a 34.892648,34.570766 0 0 0 -3.57875,0.253716 29.772456,29.533396 0 0 1 19.90988,27.861278 29.772456,29.533396 0 0 1 -29.772637,29.533498 29.772456,29.533396 0 0 1 -16.069374,-4.67333 34.892648,34.570766 0 0 0 29.510881,16.16639 34.892648,34.570766 0 0 0 34.89295,-34.5705 34.892648,34.570766 0 0 0 -34.89295,-34.571052 z" />
    <circle
       style="fill:#ffeeaa;fill-opacity:1;stroke:#b0b156;stroke-width:1.32292;stroke-opacity:1"
       id="path3"
       cx="97.004204"
       cy="79.815628"
       r="5.0638084" />
    <circle
       style="fill:#ffeeaa;fill-opacity:1;stroke:#b0b156;stroke-width:1.32292;stroke-opacity:1"
       id="path3-5"
       cx="85.440422"
       cy="100.78877"
       r="5.0638084" />
    <circle
       style="fill:#ffeeaa;fill-opacity:1;stroke:#b0b156;stroke-width:1.32292;stroke-opacity:1"
       id="path3-5-2"
       cx="107.02988"
       cy="100.78877"
       r="5.0638084" />
    <path
       style="fill:none;fill-opacity:1;stroke:#ffeeaa;stroke-width:1.32292;stroke-opacity:1"
       d="M 97.004202,79.815628 107.02988,100.78877 H 85.440421"
       id="path4" />
  </g>
</svg>
