<?xml version="1.0" encoding="UTF-8" standalone="no"?>
<!-- Created with Inkscape (http://www.inkscape.org/) -->

<svg
   width="210.66145mm"
   height="210.66147mm"
   viewBox="0 0 210.66145 210.66147"
   version="1.1"
   id="svg1"
   inkscape:version="1.3.2 (1:1.3.2+202311252150+091e20ef0f)"
   sodipodi:docname="icon.svg"
   xmlns:inkscape="http://www.inkscape.org/namespaces/inkscape"
   xmlns:sodipodi="http://sodipodi.sourceforge.net/DTD/sodipodi-0.dtd"
   xmlns="http://www.w3.org/2000/svg"
   xmlns:svg="http://www.w3.org/2000/svg">
  <sodipodi:namedview
     id="namedview1"
     pagecolor="#505050"
     bordercolor="#eeeeee"
     borderopacity="1"
     inkscape:showpageshadow="0"
     inkscape:pageopacity="0"
     inkscape:pagecheckerboard="0"
     inkscape:deskcolor="#505050"
     inkscape:document-units="mm"
     inkscape:zoom="0.70822811"
     inkscape:cx="170.84891"
     inkscape:cy="348.0517"
     inkscape:window-width="1920"
     inkscape:window-height="995"
     inkscape:window-x="0"
     inkscape:window-y="0"
     inkscape:window-maximized="1"
     inkscape:current-layer="layer1" />
  <defs
     id="defs1" />
  <g
     inkscape:label="Layer 1"
     inkscape:groupmode="layer"
     id="layer1">
    <circle
       style="fill:#000000;stroke:#000000;stroke-width:1.32292;stroke-opacity:1"
       id="path1"
       cx="105.33073"
       cy="105.33073"
       r="104.66927" />
    <path
       id="path2"
       style="fill:#ffeeaa;stroke:#b0b156;stroke-width:1.32292;stroke-opacity:1"
       d="m 105.12191,12.537429 a 93.657262,92.793281 0 0 0 -9.60592,0.681013 79.913875,79.272201 0 0 1 53.4412,74.783977 79.913875,79.272201 0 0 1 -79.914364,79.272471 79.913875,79.272201 0 0 1 -43.132685,-12.54394 93.657262,92.793281 0 0 0 79.211769,43.39309 93.657262,92.793281 0 0 0 93.65807,-92.79256 93.657262,92.793281 0 0 0 -93.65807,-92.794051 z" />
    <circle
       style="fill:#ffeeaa;fill-opacity:1;stroke:#b0b156;stroke-width:1.32292;stroke-opacity:1"
       id="path3"
       cx="66.181175"
       cy="46.300526"
       r="13.592045" />
    <circle
       style="fill:#ffeeaa;fill-opacity:1;stroke:#b0b156;stroke-width:1.32292;stroke-opacity:1"
       id="path3-5"
       cx="35.142193"
       cy="102.59569"
       r="13.592045" />
    <circle
       style="fill:#ffeeaa;fill-opacity:1;stroke:#b0b156;stroke-width:1.32292;stroke-opacity:1"
       id="path3-5-2"
       cx="93.091629"
       cy="102.59569"
       r="13.592045" />
    <path
       style="fill:none;fill-opacity:1;stroke:#ffeeaa;stroke-width:1.32292;stroke-opacity:1"
       d="m 66.181165,46.300523 26.91047,56.295157 H 35.142189"
       id="path4" />
  </g>
</svg>
